<?xml version="1.0" encoding="utf-8" standalone="no"?>
<!DOCTYPE svg PUBLIC "-//W3C//DTD SVG 1.1//EN"
  "http://www.w3.org/Graphics/SVG/1.1/DTD/svg11.dtd">
<svg xmlns:xlink="http://www.w3.org/1999/xlink" width="565.320215pt" height="487.392806pt" viewBox="0 0 565.320215 487.392806" xmlns="http://www.w3.org/2000/svg" version="1.1">
 <metadata>
  <rdf:RDF xmlns:dc="http://purl.org/dc/elements/1.1/" xmlns:cc="http://creativecommons.org/ns#" xmlns:rdf="http://www.w3.org/1999/02/22-rdf-syntax-ns#">
   <cc:Work>
    <dc:type rdf:resource="http://purl.org/dc/dcmitype/StillImage"/>
    <dc:date>2026-03-05T05:38:45.673692</dc:date>
    <dc:format>image/svg+xml</dc:format>
    <dc:creator>
     <cc:Agent>
      <dc:title>Matplotlib v3.10.8, https://matplotlib.org/</dc:title>
     </cc:Agent>
    </dc:creator>
   </cc:Work>
  </rdf:RDF>
 </metadata>
 <defs>
  <style type="text/css">*{stroke-linejoin: round; stroke-linecap: butt}</style>
 </defs>
 <g id="figure_1">
  <g id="patch_1">
   <path d="M 0 487.392806 
L 565.320215 487.392806 
L 565.320215 0 
L 0 0 
z
" style="fill: #ffffff"/>
  </g>
  <g id="axes_1">
   <g id="patch_2">
    <path d="M 458.911513 252.300886 
C 458.911513 224.931763 453.520392 197.82877 443.046683 172.542998 
C 432.572973 147.257225 417.220361 124.280418 397.867468 104.927525 
C 378.514576 85.574633 355.537768 70.222021 330.251996 59.748311 
C 304.966224 49.274601 277.863231 43.883481 250.494108 43.883481 
C 223.124985 43.883481 196.021993 49.274601 170.73622 59.748311 
C 145.450448 70.222021 122.47364 85.574633 103.120748 104.927525 
C 83.767856 124.280418 68.415244 147.257225 57.941534 172.542998 
C 47.467824 197.82877 42.076704 224.931763 42.076704 252.300886 
C 42.076704 279.670008 47.467824 306.773001 57.941534 332.058773 
C 68.415244 357.344546 83.767856 380.321353 103.120748 399.674246 
C 122.47364 419.027138 145.450448 434.37975 170.73622 444.85346 
C 196.021993 455.32717 223.124985 460.71829 250.494108 460.71829 
C 277.863231 460.71829 304.966224 455.32717 330.251996 444.85346 
C 355.537768 434.37975 378.514576 419.027138 397.867468 399.674246 
C 417.220361 380.321353 432.572973 357.344546 443.046683 332.058773 
C 453.520392 306.773001 458.911513 279.670008 458.911513 252.300886 
M 250.494108 252.300886 
C 250.494108 252.300886 250.494108 252.300886 250.494108 252.300886 
C 250.494108 252.300886 250.494108 252.300886 250.494108 252.300886 
C 250.494108 252.300886 250.494108 252.300886 250.494108 252.300886 
C 250.494108 252.300886 250.494108 252.300886 250.494108 252.300886 
C 250.494108 252.300886 250.494108 252.300886 250.494108 252.300886 
C 250.494108 252.300886 250.494108 252.300886 250.494108 252.300886 
C 250.494108 252.300886 250.494108 252.300886 250.494108 252.300886 
C 250.494108 252.300886 250.494108 252.300886 250.494108 252.300886 
C 250.494108 252.300886 250.494108 252.300886 250.494108 252.300886 
C 250.494108 252.300886 250.494108 252.300886 250.494108 252.300886 
C 250.494108 252.300886 250.494108 252.300886 250.494108 252.300886 
C 250.494108 252.300886 250.494108 252.300886 250.494108 252.300886 
C 250.494108 252.300886 250.494108 252.300886 250.494108 252.300886 
C 250.494108 252.300886 250.494108 252.300886 250.494108 252.300886 
C 250.494108 252.300886 250.494108 252.300886 250.494108 252.300886 
C 250.494108 252.300886 250.494108 252.300886 250.494108 252.300886 
z
" style="fill: #ffffff"/>
   </g>
   <g id="patch_3">
    <path d="M 272.071066 171.774584 
L 309.443452 193.351542 
L 331.02041 230.723928 
L 331.02041 273.877843 
L 320.396878 322.203655 
L 273.112059 336.712228 
L 214.347888 387.200415 
L 136.730356 366.064638 
L 95.546983 293.818843 
L 136.49321 221.754437 
L 191.544764 193.351542 
L 225.620671 159.471955 
z
" clip-path="url(#pe72074c6df)" style="fill: #6c9a8b; opacity: 0.13; stroke: #6c9a8b; stroke-linejoin: miter"/>
   </g>
   <g id="patch_4">
    <path d="M 295.226825 85.356114 
L 382.507428 120.287566 
L 441.744074 201.055612 
L 441.744074 303.54616 
L 333.540988 335.347766 
L 301.739382 443.550852 
L 199.248834 443.550852 
L 113.988208 388.806786 
L 66.50471 301.600696 
L 131.343273 220.374515 
L 126.034277 127.841055 
L 226.279967 161.932481 
z
" clip-path="url(#pe72074c6df)" style="fill: #1f77b4; opacity: 0.13; stroke: #1f77b4; stroke-linejoin: miter"/>
   </g>
   <g id="patch_5">
    <path d="M 291.608738 98.859 
L 381.365803 121.42919 
L 389.457899 215.06565 
L 406.026763 293.975735 
L 366.401264 368.208042 
L 295.493421 420.240607 
L 208.785079 407.961102 
L 130.315904 372.47909 
L 59.244142 303.54616 
L 59.244142 201.055612 
L 129.365319 131.172096 
L 199.248834 61.050919 
z
" clip-path="url(#pe72074c6df)" style="fill: #9467bd; opacity: 0.13; stroke: #9467bd; stroke-linejoin: miter"/>
   </g>
   <g id="patch_6">
    <path d="M 281.478093 136.667081 
L 390.4988 112.296193 
L 331.02041 230.723928 
L 388.168108 289.190523 
L 390.4988 392.305578 
L 298.095905 429.953209 
L 204.546748 423.778769 
L 110.489416 392.305578 
L 70.134994 300.627965 
L 131.343273 220.374515 
L 110.489416 112.296193 
L 228.917151 171.774584 
z
" clip-path="url(#pe72074c6df)" style="fill: #b0b0b0; opacity: 0.13; stroke: #b0b0b0; stroke-linejoin: miter"/>
   </g>
   <g id="patch_7">
    <path d="M 301.739382 61.050919 
L 325.426197 177.368797 
L 398.684871 212.59329 
L 441.744074 303.54616 
L 309.443452 311.25023 
L 272.071066 332.827187 
L 228.917151 332.827187 
L 191.544764 311.25023 
L 169.967807 273.877843 
L 169.967807 230.723928 
L 122.703236 124.510013 
L 204.523202 80.735127 
z
" clip-path="url(#pe72074c6df)" style="fill: #a9746e; opacity: 0.13; stroke: #a9746e; stroke-linejoin: miter"/>
   </g>
   <g id="matplotlib.axis_1">
    <g id="xtick_1">
     <g id="line2d_1">
      <path d="M 250.494108 252.300886 
L 304.436502 50.985132 
" clip-path="url(#pe72074c6df)" style="fill: none; stroke: #808080; stroke-opacity: 0.3; stroke-width: 0.8; stroke-linecap: square"/>
     </g>
     <g id="text_1">
      <!-- WinoGAViL -->
      <g style="fill: #1f4e79" transform="translate(266.984324 35.046777) scale(0.14 -0.14)">
       <defs>
        <path id="DejaVuSans-Bold-57" d="M 191 4666 
L 1344 4666 
L 2150 1275 
L 2950 4666 
L 4109 4666 
L 4909 1275 
L 5716 4666 
L 6859 4666 
L 5759 0 
L 4372 0 
L 3525 3547 
L 2688 0 
L 1300 0 
L 191 4666 
z
" transform="scale(0.015625)"/>
        <path id="DejaVuSans-Bold-69" d="M 538 3500 
L 1656 3500 
L 1656 0 
L 538 0 
L 538 3500 
z
M 538 4863 
L 1656 4863 
L 1656 3950 
L 538 3950 
L 538 4863 
z
" transform="scale(0.015625)"/>
        <path id="DejaVuSans-Bold-6e" d="M 4056 2131 
L 4056 0 
L 2931 0 
L 2931 347 
L 2931 1631 
Q 2931 2084 2911 2256 
Q 2891 2428 2841 2509 
Q 2775 2619 2662 2680 
Q 2550 2741 2406 2741 
Q 2056 2741 1856 2470 
Q 1656 2200 1656 1722 
L 1656 0 
L 538 0 
L 538 3500 
L 1656 3500 
L 1656 2988 
Q 1909 3294 2193 3439 
Q 2478 3584 2822 3584 
Q 3428 3584 3742 3212 
Q 4056 2841 4056 2131 
z
" transform="scale(0.015625)"/>
        <path id="DejaVuSans-Bold-6f" d="M 2203 2784 
Q 1831 2784 1636 2517 
Q 1441 2250 1441 1747 
Q 1441 1244 1636 976 
Q 1831 709 2203 709 
Q 2569 709 2762 976 
Q 2956 1244 2956 1747 
Q 2956 2250 2762 2517 
Q 2569 2784 2203 2784 
z
M 2203 3584 
Q 3106 3584 3614 3096 
Q 4122 2609 4122 1747 
Q 4122 884 3614 396 
Q 3106 -91 2203 -91 
Q 1297 -91 786 396 
Q 275 884 275 1747 
Q 275 2609 786 3096 
Q 1297 3584 2203 3584 
z
" transform="scale(0.015625)"/>
        <path id="DejaVuSans-Bold-47" d="M 4781 347 
Q 4331 128 3847 18 
Q 3363 -91 2847 -91 
Q 1681 -91 1000 561 
Q 319 1213 319 2328 
Q 319 3456 1012 4103 
Q 1706 4750 2913 4750 
Q 3378 4750 3804 4662 
Q 4231 4575 4609 4403 
L 4609 3438 
Q 4219 3659 3833 3768 
Q 3447 3878 3059 3878 
Q 2341 3878 1952 3476 
Q 1563 3075 1563 2328 
Q 1563 1588 1938 1184 
Q 2313 781 3003 781 
Q 3191 781 3352 804 
Q 3513 828 3641 878 
L 3641 1784 
L 2906 1784 
L 2906 2591 
L 4781 2591 
L 4781 347 
z
" transform="scale(0.015625)"/>
        <path id="DejaVuSans-Bold-41" d="M 3419 850 
L 1538 850 
L 1241 0 
L 31 0 
L 1759 4666 
L 3194 4666 
L 4922 0 
L 3713 0 
L 3419 850 
z
M 1838 1716 
L 3116 1716 
L 2478 3572 
L 1838 1716 
z
" transform="scale(0.015625)"/>
        <path id="DejaVuSans-Bold-56" d="M 31 4666 
L 1241 4666 
L 2478 1222 
L 3713 4666 
L 4922 4666 
L 3194 0 
L 1759 0 
L 31 4666 
z
" transform="scale(0.015625)"/>
        <path id="DejaVuSans-Bold-4c" d="M 588 4666 
L 1791 4666 
L 1791 909 
L 3903 909 
L 3903 0 
L 588 0 
L 588 4666 
z
" transform="scale(0.015625)"/>
       </defs>
       <use xlink:href="#DejaVuSans-Bold-57"/>
       <use xlink:href="#DejaVuSans-Bold-69" transform="translate(110.302734 0)"/>
       <use xlink:href="#DejaVuSans-Bold-6e" transform="translate(144.580078 0)"/>
       <use xlink:href="#DejaVuSans-Bold-6f" transform="translate(215.771484 0)"/>
       <use xlink:href="#DejaVuSans-Bold-47" transform="translate(284.472656 0)"/>
       <use xlink:href="#DejaVuSans-Bold-41" transform="translate(366.552734 0)"/>
       <use xlink:href="#DejaVuSans-Bold-56" transform="translate(437.195312 0)"/>
       <use xlink:href="#DejaVuSans-Bold-69" transform="translate(512.837891 0)"/>
       <use xlink:href="#DejaVuSans-Bold-4c" transform="translate(547.115234 0)"/>
      </g>
     </g>
    </g>
    <g id="xtick_2">
     <g id="line2d_2">
      <path d="M 250.494108 252.300886 
L 397.867468 104.927525 
" clip-path="url(#pe72074c6df)" style="fill: none; stroke: #808080; stroke-opacity: 0.3; stroke-width: 0.8; stroke-linecap: square"/>
     </g>
     <g id="text_2">
      <!-- RCLIP-V1 -->
      <g style="fill: #1f4e79" transform="translate(377.077689 94.294961) scale(0.14 -0.14)">
       <defs>
        <path id="DejaVuSans-Bold-52" d="M 2297 2597 
Q 2675 2597 2839 2737 
Q 3003 2878 3003 3200 
Q 3003 3519 2839 3656 
Q 2675 3794 2297 3794 
L 1791 3794 
L 1791 2597 
L 2297 2597 
z
M 1791 1766 
L 1791 0 
L 588 0 
L 588 4666 
L 2425 4666 
Q 3347 4666 3776 4356 
Q 4206 4047 4206 3378 
Q 4206 2916 3982 2619 
Q 3759 2322 3309 2181 
Q 3556 2125 3751 1926 
Q 3947 1728 4147 1325 
L 4800 0 
L 3519 0 
L 2950 1159 
Q 2778 1509 2601 1637 
Q 2425 1766 2131 1766 
L 1791 1766 
z
" transform="scale(0.015625)"/>
        <path id="DejaVuSans-Bold-43" d="M 4288 256 
Q 3956 84 3597 -3 
Q 3238 -91 2847 -91 
Q 1681 -91 1000 561 
Q 319 1213 319 2328 
Q 319 3447 1000 4098 
Q 1681 4750 2847 4750 
Q 3238 4750 3597 4662 
Q 3956 4575 4288 4403 
L 4288 3438 
Q 3953 3666 3628 3772 
Q 3303 3878 2944 3878 
Q 2300 3878 1931 3465 
Q 1563 3053 1563 2328 
Q 1563 1606 1931 1193 
Q 2300 781 2944 781 
Q 3303 781 3628 887 
Q 3953 994 4288 1222 
L 4288 256 
z
" transform="scale(0.015625)"/>
        <path id="DejaVuSans-Bold-49" d="M 588 4666 
L 1791 4666 
L 1791 0 
L 588 0 
L 588 4666 
z
" transform="scale(0.015625)"/>
        <path id="DejaVuSans-Bold-50" d="M 588 4666 
L 2584 4666 
Q 3475 4666 3951 4270 
Q 4428 3875 4428 3144 
Q 4428 2409 3951 2014 
Q 3475 1619 2584 1619 
L 1791 1619 
L 1791 0 
L 588 0 
L 588 4666 
z
M 1791 3794 
L 1791 2491 
L 2456 2491 
Q 2806 2491 2997 2661 
Q 3188 2831 3188 3144 
Q 3188 3456 2997 3625 
Q 2806 3794 2456 3794 
L 1791 3794 
z
" transform="scale(0.015625)"/>
        <path id="DejaVuSans-Bold-2d" d="M 347 2297 
L 2309 2297 
L 2309 1388 
L 347 1388 
L 347 2297 
z
" transform="scale(0.015625)"/>
        <path id="DejaVuSans-Bold-31" d="M 750 831 
L 1813 831 
L 1813 3847 
L 722 3622 
L 722 4441 
L 1806 4666 
L 2950 4666 
L 2950 831 
L 4013 831 
L 4013 0 
L 750 0 
L 750 831 
z
" transform="scale(0.015625)"/>
       </defs>
       <use xlink:href="#DejaVuSans-Bold-52"/>
       <use xlink:href="#DejaVuSans-Bold-43" transform="translate(77.001953 0)"/>
       <use xlink:href="#DejaVuSans-Bold-4c" transform="translate(150.390625 0)"/>
       <use xlink:href="#DejaVuSans-Bold-49" transform="translate(214.111328 0)"/>
       <use xlink:href="#DejaVuSans-Bold-50" transform="translate(251.318359 0)"/>
       <use xlink:href="#DejaVuSans-Bold-2d" transform="translate(322.859375 0)"/>
       <use xlink:href="#DejaVuSans-Bold-56" transform="translate(357.113281 0)"/>
       <use xlink:href="#DejaVuSans-Bold-31" transform="translate(434.505859 0)"/>
      </g>
     </g>
    </g>
    <g id="xtick_3">
     <g id="line2d_3">
      <path d="M 250.494108 252.300886 
L 451.809862 198.358492 
" clip-path="url(#pe72074c6df)" style="fill: none; stroke: #808080; stroke-opacity: 0.3; stroke-width: 0.8; stroke-linecap: square"/>
     </g>
     <g id="text_3">
      <!-- RCLIP-V2 -->
      <g style="fill: #1f4e79" transform="translate(436.325873 196.915827) scale(0.14 -0.14)">
       <defs>
        <path id="DejaVuSans-Bold-32" d="M 1844 884 
L 3897 884 
L 3897 0 
L 506 0 
L 506 884 
L 2209 2388 
Q 2438 2594 2547 2791 
Q 2656 2988 2656 3200 
Q 2656 3528 2436 3728 
Q 2216 3928 1850 3928 
Q 1569 3928 1234 3808 
Q 900 3688 519 3450 
L 519 4475 
Q 925 4609 1322 4679 
Q 1719 4750 2100 4750 
Q 2938 4750 3402 4381 
Q 3866 4013 3866 3353 
Q 3866 2972 3669 2642 
Q 3472 2313 2841 1759 
L 1844 884 
z
" transform="scale(0.015625)"/>
       </defs>
       <use xlink:href="#DejaVuSans-Bold-52"/>
       <use xlink:href="#DejaVuSans-Bold-43" transform="translate(77.001953 0)"/>
       <use xlink:href="#DejaVuSans-Bold-4c" transform="translate(150.390625 0)"/>
       <use xlink:href="#DejaVuSans-Bold-49" transform="translate(214.111328 0)"/>
       <use xlink:href="#DejaVuSans-Bold-50" transform="translate(251.318359 0)"/>
       <use xlink:href="#DejaVuSans-Bold-2d" transform="translate(322.859375 0)"/>
       <use xlink:href="#DejaVuSans-Bold-56" transform="translate(357.113281 0)"/>
       <use xlink:href="#DejaVuSans-Bold-32" transform="translate(434.505859 0)"/>
      </g>
     </g>
    </g>
    <g id="xtick_4">
     <g id="line2d_4">
      <path d="M 250.494108 252.300886 
L 451.809862 306.243279 
" clip-path="url(#pe72074c6df)" style="fill: none; stroke: #808080; stroke-opacity: 0.3; stroke-width: 0.8; stroke-linecap: square"/>
     </g>
     <g id="text_4">
      <!-- RCLIP-V3 -->
      <g style="fill: #1f4e79" transform="translate(436.325873 315.412195) scale(0.14 -0.14)">
       <defs>
        <path id="DejaVuSans-Bold-33" d="M 2981 2516 
Q 3453 2394 3698 2092 
Q 3944 1791 3944 1325 
Q 3944 631 3412 270 
Q 2881 -91 1863 -91 
Q 1503 -91 1142 -33 
Q 781 25 428 141 
L 428 1069 
Q 766 900 1098 814 
Q 1431 728 1753 728 
Q 2231 728 2486 893 
Q 2741 1059 2741 1369 
Q 2741 1688 2480 1852 
Q 2219 2016 1709 2016 
L 1228 2016 
L 1228 2791 
L 1734 2791 
Q 2188 2791 2409 2933 
Q 2631 3075 2631 3366 
Q 2631 3634 2415 3781 
Q 2200 3928 1806 3928 
Q 1516 3928 1219 3862 
Q 922 3797 628 3669 
L 628 4550 
Q 984 4650 1334 4700 
Q 1684 4750 2022 4750 
Q 2931 4750 3382 4451 
Q 3834 4153 3834 3553 
Q 3834 3144 3618 2883 
Q 3403 2622 2981 2516 
z
" transform="scale(0.015625)"/>
       </defs>
       <use xlink:href="#DejaVuSans-Bold-52"/>
       <use xlink:href="#DejaVuSans-Bold-43" transform="translate(77.001953 0)"/>
       <use xlink:href="#DejaVuSans-Bold-4c" transform="translate(150.390625 0)"/>
       <use xlink:href="#DejaVuSans-Bold-49" transform="translate(214.111328 0)"/>
       <use xlink:href="#DejaVuSans-Bold-50" transform="translate(251.318359 0)"/>
       <use xlink:href="#DejaVuSans-Bold-2d" transform="translate(322.859375 0)"/>
       <use xlink:href="#DejaVuSans-Bold-56" transform="translate(357.113281 0)"/>
       <use xlink:href="#DejaVuSans-Bold-33" transform="translate(434.505859 0)"/>
      </g>
     </g>
    </g>
    <g id="xtick_5">
     <g id="line2d_5">
      <path d="M 250.494108 252.300886 
L 397.867468 399.674246 
" clip-path="url(#pe72074c6df)" style="fill: none; stroke: #808080; stroke-opacity: 0.3; stroke-width: 0.8; stroke-linecap: square"/>
     </g>
     <g id="text_5">
      <!-- WhatsUp -->
      <g style="fill: #803b32" transform="translate(376.728782 418.03306) scale(0.14 -0.14)">
       <defs>
        <path id="DejaVuSans-Bold-68" d="M 4056 2131 
L 4056 0 
L 2931 0 
L 2931 347 
L 2931 1625 
Q 2931 2084 2911 2256 
Q 2891 2428 2841 2509 
Q 2775 2619 2662 2680 
Q 2550 2741 2406 2741 
Q 2056 2741 1856 2470 
Q 1656 2200 1656 1722 
L 1656 0 
L 538 0 
L 538 4863 
L 1656 4863 
L 1656 2988 
Q 1909 3294 2193 3439 
Q 2478 3584 2822 3584 
Q 3428 3584 3742 3212 
Q 4056 2841 4056 2131 
z
" transform="scale(0.015625)"/>
        <path id="DejaVuSans-Bold-61" d="M 2106 1575 
Q 1756 1575 1579 1456 
Q 1403 1338 1403 1106 
Q 1403 894 1545 773 
Q 1688 653 1941 653 
Q 2256 653 2472 879 
Q 2688 1106 2688 1447 
L 2688 1575 
L 2106 1575 
z
M 3816 1997 
L 3816 0 
L 2688 0 
L 2688 519 
Q 2463 200 2181 54 
Q 1900 -91 1497 -91 
Q 953 -91 614 226 
Q 275 544 275 1050 
Q 275 1666 698 1953 
Q 1122 2241 2028 2241 
L 2688 2241 
L 2688 2328 
Q 2688 2594 2478 2717 
Q 2269 2841 1825 2841 
Q 1466 2841 1156 2769 
Q 847 2697 581 2553 
L 581 3406 
Q 941 3494 1303 3539 
Q 1666 3584 2028 3584 
Q 2975 3584 3395 3211 
Q 3816 2838 3816 1997 
z
" transform="scale(0.015625)"/>
        <path id="DejaVuSans-Bold-74" d="M 1759 4494 
L 1759 3500 
L 2913 3500 
L 2913 2700 
L 1759 2700 
L 1759 1216 
Q 1759 972 1856 886 
Q 1953 800 2241 800 
L 2816 800 
L 2816 0 
L 1856 0 
Q 1194 0 917 276 
Q 641 553 641 1216 
L 641 2700 
L 84 2700 
L 84 3500 
L 641 3500 
L 641 4494 
L 1759 4494 
z
" transform="scale(0.015625)"/>
        <path id="DejaVuSans-Bold-73" d="M 3272 3391 
L 3272 2541 
Q 2913 2691 2578 2766 
Q 2244 2841 1947 2841 
Q 1628 2841 1473 2761 
Q 1319 2681 1319 2516 
Q 1319 2381 1436 2309 
Q 1553 2238 1856 2203 
L 2053 2175 
Q 2913 2066 3209 1816 
Q 3506 1566 3506 1031 
Q 3506 472 3093 190 
Q 2681 -91 1863 -91 
Q 1516 -91 1145 -36 
Q 775 19 384 128 
L 384 978 
Q 719 816 1070 734 
Q 1422 653 1784 653 
Q 2113 653 2278 743 
Q 2444 834 2444 1013 
Q 2444 1163 2330 1236 
Q 2216 1309 1875 1350 
L 1678 1375 
Q 931 1469 631 1722 
Q 331 1975 331 2491 
Q 331 3047 712 3315 
Q 1094 3584 1881 3584 
Q 2191 3584 2531 3537 
Q 2872 3491 3272 3391 
z
" transform="scale(0.015625)"/>
        <path id="DejaVuSans-Bold-55" d="M 588 4666 
L 1791 4666 
L 1791 1869 
Q 1791 1291 1980 1042 
Q 2169 794 2597 794 
Q 3028 794 3217 1042 
Q 3406 1291 3406 1869 
L 3406 4666 
L 4609 4666 
L 4609 1869 
Q 4609 878 4112 393 
Q 3616 -91 2597 -91 
Q 1581 -91 1084 393 
Q 588 878 588 1869 
L 588 4666 
z
" transform="scale(0.015625)"/>
        <path id="DejaVuSans-Bold-70" d="M 1656 506 
L 1656 -1331 
L 538 -1331 
L 538 3500 
L 1656 3500 
L 1656 2988 
Q 1888 3294 2169 3439 
Q 2450 3584 2816 3584 
Q 3463 3584 3878 3070 
Q 4294 2556 4294 1747 
Q 4294 938 3878 423 
Q 3463 -91 2816 -91 
Q 2450 -91 2169 54 
Q 1888 200 1656 506 
z
M 2400 2772 
Q 2041 2772 1848 2508 
Q 1656 2244 1656 1747 
Q 1656 1250 1848 986 
Q 2041 722 2400 722 
Q 2759 722 2948 984 
Q 3138 1247 3138 1747 
Q 3138 2247 2948 2509 
Q 2759 2772 2400 2772 
z
" transform="scale(0.015625)"/>
       </defs>
       <use xlink:href="#DejaVuSans-Bold-57"/>
       <use xlink:href="#DejaVuSans-Bold-68" transform="translate(110.302734 0)"/>
       <use xlink:href="#DejaVuSans-Bold-61" transform="translate(181.494141 0)"/>
       <use xlink:href="#DejaVuSans-Bold-74" transform="translate(248.974609 0)"/>
       <use xlink:href="#DejaVuSans-Bold-73" transform="translate(296.777344 0)"/>
       <use xlink:href="#DejaVuSans-Bold-55" transform="translate(356.298828 0)"/>
       <use xlink:href="#DejaVuSans-Bold-70" transform="translate(437.5 0)"/>
      </g>
     </g>
    </g>
    <g id="xtick_6">
     <g id="line2d_6">
      <path d="M 250.494108 252.300886 
L 304.436502 453.616639 
" clip-path="url(#pe72074c6df)" style="fill: none; stroke: #808080; stroke-opacity: 0.3; stroke-width: 0.8; stroke-linecap: square"/>
     </g>
     <g id="text_6">
      <!-- Valse -->
      <g style="fill: #803b32" transform="translate(288.672292 477.281244) scale(0.14 -0.14)">
       <defs>
        <path id="DejaVuSans-Bold-6c" d="M 538 4863 
L 1656 4863 
L 1656 0 
L 538 0 
L 538 4863 
z
" transform="scale(0.015625)"/>
        <path id="DejaVuSans-Bold-65" d="M 4031 1759 
L 4031 1441 
L 1416 1441 
Q 1456 1047 1700 850 
Q 1944 653 2381 653 
Q 2734 653 3104 758 
Q 3475 863 3866 1075 
L 3866 213 
Q 3469 63 3072 -14 
Q 2675 -91 2278 -91 
Q 1328 -91 801 392 
Q 275 875 275 1747 
Q 275 2603 792 3093 
Q 1309 3584 2216 3584 
Q 3041 3584 3536 3087 
Q 4031 2591 4031 1759 
z
M 2881 2131 
Q 2881 2450 2695 2645 
Q 2509 2841 2209 2841 
Q 1884 2841 1681 2658 
Q 1478 2475 1428 2131 
L 2881 2131 
z
" transform="scale(0.015625)"/>
       </defs>
       <use xlink:href="#DejaVuSans-Bold-56"/>
       <use xlink:href="#DejaVuSans-Bold-61" transform="translate(71.892578 0)"/>
       <use xlink:href="#DejaVuSans-Bold-6c" transform="translate(139.373047 0)"/>
       <use xlink:href="#DejaVuSans-Bold-73" transform="translate(173.650391 0)"/>
       <use xlink:href="#DejaVuSans-Bold-65" transform="translate(233.171875 0)"/>
      </g>
     </g>
    </g>
    <g id="xtick_7">
     <g id="line2d_7">
      <path d="M 250.494108 252.300886 
L 196.551715 453.616639 
" clip-path="url(#pe72074c6df)" style="fill: none; stroke: #808080; stroke-opacity: 0.3; stroke-width: 0.8; stroke-linecap: square"/>
     </g>
     <g id="text_7">
      <!-- Crepe -->
      <g style="fill: #803b32" transform="translate(168.150299 477.281244) scale(0.14 -0.14)">
       <defs>
        <path id="DejaVuSans-Bold-72" d="M 3138 2547 
Q 2991 2616 2845 2648 
Q 2700 2681 2553 2681 
Q 2122 2681 1889 2404 
Q 1656 2128 1656 1613 
L 1656 0 
L 538 0 
L 538 3500 
L 1656 3500 
L 1656 2925 
Q 1872 3269 2151 3426 
Q 2431 3584 2822 3584 
Q 2878 3584 2943 3579 
Q 3009 3575 3134 3559 
L 3138 2547 
z
" transform="scale(0.015625)"/>
       </defs>
       <use xlink:href="#DejaVuSans-Bold-43"/>
       <use xlink:href="#DejaVuSans-Bold-72" transform="translate(73.388672 0)"/>
       <use xlink:href="#DejaVuSans-Bold-65" transform="translate(122.705078 0)"/>
       <use xlink:href="#DejaVuSans-Bold-70" transform="translate(190.527344 0)"/>
       <use xlink:href="#DejaVuSans-Bold-65" transform="translate(262.109375 0)"/>
      </g>
     </g>
    </g>
    <g id="xtick_8">
     <g id="line2d_8">
      <path d="M 250.494108 252.300886 
L 103.120748 399.674246 
" clip-path="url(#pe72074c6df)" style="fill: none; stroke: #808080; stroke-opacity: 0.3; stroke-width: 0.8; stroke-linecap: square"/>
     </g>
     <g id="text_8">
      <!-- SugarCREPE -->
      <g style="fill: #803b32" transform="translate(40.192715 417.923685) scale(0.14 -0.14)">
       <defs>
        <path id="DejaVuSans-Bold-53" d="M 3834 4519 
L 3834 3531 
Q 3450 3703 3084 3790 
Q 2719 3878 2394 3878 
Q 1963 3878 1756 3759 
Q 1550 3641 1550 3391 
Q 1550 3203 1689 3098 
Q 1828 2994 2194 2919 
L 2706 2816 
Q 3484 2659 3812 2340 
Q 4141 2022 4141 1434 
Q 4141 663 3683 286 
Q 3225 -91 2284 -91 
Q 1841 -91 1394 -6 
Q 947 78 500 244 
L 500 1259 
Q 947 1022 1364 901 
Q 1781 781 2169 781 
Q 2563 781 2772 912 
Q 2981 1044 2981 1288 
Q 2981 1506 2839 1625 
Q 2697 1744 2272 1838 
L 1806 1941 
Q 1106 2091 782 2419 
Q 459 2747 459 3303 
Q 459 4000 909 4375 
Q 1359 4750 2203 4750 
Q 2588 4750 2994 4692 
Q 3400 4634 3834 4519 
z
" transform="scale(0.015625)"/>
        <path id="DejaVuSans-Bold-75" d="M 500 1363 
L 500 3500 
L 1625 3500 
L 1625 3150 
Q 1625 2866 1622 2436 
Q 1619 2006 1619 1863 
Q 1619 1441 1641 1255 
Q 1663 1069 1716 984 
Q 1784 875 1895 815 
Q 2006 756 2150 756 
Q 2500 756 2700 1025 
Q 2900 1294 2900 1772 
L 2900 3500 
L 4019 3500 
L 4019 0 
L 2900 0 
L 2900 506 
Q 2647 200 2364 54 
Q 2081 -91 1741 -91 
Q 1134 -91 817 281 
Q 500 653 500 1363 
z
" transform="scale(0.015625)"/>
        <path id="DejaVuSans-Bold-67" d="M 2919 594 
Q 2688 288 2409 144 
Q 2131 0 1766 0 
Q 1125 0 706 504 
Q 288 1009 288 1791 
Q 288 2575 706 3076 
Q 1125 3578 1766 3578 
Q 2131 3578 2409 3434 
Q 2688 3291 2919 2981 
L 2919 3500 
L 4044 3500 
L 4044 353 
Q 4044 -491 3511 -936 
Q 2978 -1381 1966 -1381 
Q 1638 -1381 1331 -1331 
Q 1025 -1281 716 -1178 
L 716 -306 
Q 1009 -475 1290 -558 
Q 1572 -641 1856 -641 
Q 2406 -641 2662 -400 
Q 2919 -159 2919 353 
L 2919 594 
z
M 2181 2772 
Q 1834 2772 1640 2515 
Q 1447 2259 1447 1791 
Q 1447 1309 1634 1061 
Q 1822 813 2181 813 
Q 2531 813 2725 1069 
Q 2919 1325 2919 1791 
Q 2919 2259 2725 2515 
Q 2531 2772 2181 2772 
z
" transform="scale(0.015625)"/>
        <path id="DejaVuSans-Bold-45" d="M 588 4666 
L 3834 4666 
L 3834 3756 
L 1791 3756 
L 1791 2888 
L 3713 2888 
L 3713 1978 
L 1791 1978 
L 1791 909 
L 3903 909 
L 3903 0 
L 588 0 
L 588 4666 
z
" transform="scale(0.015625)"/>
       </defs>
       <use xlink:href="#DejaVuSans-Bold-53"/>
       <use xlink:href="#DejaVuSans-Bold-75" transform="translate(72.021484 0)"/>
       <use xlink:href="#DejaVuSans-Bold-67" transform="translate(143.212891 0)"/>
       <use xlink:href="#DejaVuSans-Bold-61" transform="translate(214.794922 0)"/>
       <use xlink:href="#DejaVuSans-Bold-72" transform="translate(282.275391 0)"/>
       <use xlink:href="#DejaVuSans-Bold-43" transform="translate(331.591797 0)"/>
       <use xlink:href="#DejaVuSans-Bold-52" transform="translate(404.980469 0)"/>
       <use xlink:href="#DejaVuSans-Bold-45" transform="translate(481.982422 0)"/>
       <use xlink:href="#DejaVuSans-Bold-50" transform="translate(550.292969 0)"/>
       <use xlink:href="#DejaVuSans-Bold-45" transform="translate(623.583984 0)"/>
      </g>
     </g>
    </g>
    <g id="xtick_9">
     <g id="line2d_9">
      <path d="M 250.494108 252.300886 
L 49.178354 306.243279 
" clip-path="url(#pe72074c6df)" style="fill: none; stroke: #808080; stroke-opacity: 0.3; stroke-width: 0.8; stroke-linecap: square"/>
     </g>
     <g id="text_9">
      <!-- COCO -->
      <g style="fill: #2e6642" transform="translate(7.2 315.412195) scale(0.14 -0.14)">
       <defs>
        <path id="DejaVuSans-Bold-4f" d="M 2719 3878 
Q 2169 3878 1866 3472 
Q 1563 3066 1563 2328 
Q 1563 1594 1866 1187 
Q 2169 781 2719 781 
Q 3272 781 3575 1187 
Q 3878 1594 3878 2328 
Q 3878 3066 3575 3472 
Q 3272 3878 2719 3878 
z
M 2719 4750 
Q 3844 4750 4481 4106 
Q 5119 3463 5119 2328 
Q 5119 1197 4481 553 
Q 3844 -91 2719 -91 
Q 1597 -91 958 553 
Q 319 1197 319 2328 
Q 319 3463 958 4106 
Q 1597 4750 2719 4750 
z
" transform="scale(0.015625)"/>
       </defs>
       <use xlink:href="#DejaVuSans-Bold-43"/>
       <use xlink:href="#DejaVuSans-Bold-4f" transform="translate(73.388672 0)"/>
       <use xlink:href="#DejaVuSans-Bold-43" transform="translate(158.398438 0)"/>
       <use xlink:href="#DejaVuSans-Bold-4f" transform="translate(231.787109 0)"/>
      </g>
     </g>
    </g>
    <g id="xtick_10">
     <g id="line2d_10">
      <path d="M 250.494108 252.300886 
L 49.178354 198.358492 
" clip-path="url(#pe72074c6df)" style="fill: none; stroke: #808080; stroke-opacity: 0.3; stroke-width: 0.8; stroke-linecap: square"/>
     </g>
     <g id="text_10">
      <!-- Flickr -->
      <g style="fill: #2e6642" transform="translate(7.539062 196.915827) scale(0.14 -0.14)">
       <defs>
        <path id="DejaVuSans-Bold-46" d="M 588 4666 
L 3834 4666 
L 3834 3756 
L 1791 3756 
L 1791 2888 
L 3713 2888 
L 3713 1978 
L 1791 1978 
L 1791 0 
L 588 0 
L 588 4666 
z
" transform="scale(0.015625)"/>
        <path id="DejaVuSans-Bold-63" d="M 3366 3391 
L 3366 2478 
Q 3138 2634 2908 2709 
Q 2678 2784 2431 2784 
Q 1963 2784 1702 2511 
Q 1441 2238 1441 1747 
Q 1441 1256 1702 982 
Q 1963 709 2431 709 
Q 2694 709 2930 787 
Q 3166 866 3366 1019 
L 3366 103 
Q 3103 6 2833 -42 
Q 2563 -91 2291 -91 
Q 1344 -91 809 395 
Q 275 881 275 1747 
Q 275 2613 809 3098 
Q 1344 3584 2291 3584 
Q 2566 3584 2833 3536 
Q 3100 3488 3366 3391 
z
" transform="scale(0.015625)"/>
        <path id="DejaVuSans-Bold-6b" d="M 538 4863 
L 1656 4863 
L 1656 2216 
L 2944 3500 
L 4244 3500 
L 2534 1894 
L 4378 0 
L 3022 0 
L 1656 1459 
L 1656 0 
L 538 0 
L 538 4863 
z
" transform="scale(0.015625)"/>
       </defs>
       <use xlink:href="#DejaVuSans-Bold-46"/>
       <use xlink:href="#DejaVuSans-Bold-6c" transform="translate(68.310547 0)"/>
       <use xlink:href="#DejaVuSans-Bold-69" transform="translate(102.587891 0)"/>
       <use xlink:href="#DejaVuSans-Bold-63" transform="translate(136.865234 0)"/>
       <use xlink:href="#DejaVuSans-Bold-6b" transform="translate(196.142578 0)"/>
       <use xlink:href="#DejaVuSans-Bold-72" transform="translate(262.646484 0)"/>
      </g>
     </g>
    </g>
    <g id="xtick_11">
     <g id="line2d_11">
      <path d="M 250.494108 252.300886 
L 103.120748 104.927525 
" clip-path="url(#pe72074c6df)" style="fill: none; stroke: #808080; stroke-opacity: 0.3; stroke-width: 0.8; stroke-linecap: square"/>
     </g>
     <g id="text_11">
      <!-- Urban1k -->
      <g style="fill: #2e6642" transform="translate(55.245997 94.294961) scale(0.14 -0.14)">
       <defs>
        <path id="DejaVuSans-Bold-62" d="M 2400 722 
Q 2759 722 2948 984 
Q 3138 1247 3138 1747 
Q 3138 2247 2948 2509 
Q 2759 2772 2400 2772 
Q 2041 2772 1848 2508 
Q 1656 2244 1656 1747 
Q 1656 1250 1848 986 
Q 2041 722 2400 722 
z
M 1656 2988 
Q 1888 3294 2169 3439 
Q 2450 3584 2816 3584 
Q 3463 3584 3878 3070 
Q 4294 2556 4294 1747 
Q 4294 938 3878 423 
Q 3463 -91 2816 -91 
Q 2450 -91 2169 54 
Q 1888 200 1656 506 
L 1656 0 
L 538 0 
L 538 4863 
L 1656 4863 
L 1656 2988 
z
" transform="scale(0.015625)"/>
       </defs>
       <use xlink:href="#DejaVuSans-Bold-55"/>
       <use xlink:href="#DejaVuSans-Bold-72" transform="translate(81.201172 0)"/>
       <use xlink:href="#DejaVuSans-Bold-62" transform="translate(130.517578 0)"/>
       <use xlink:href="#DejaVuSans-Bold-61" transform="translate(202.099609 0)"/>
       <use xlink:href="#DejaVuSans-Bold-6e" transform="translate(269.580078 0)"/>
       <use xlink:href="#DejaVuSans-Bold-31" transform="translate(340.771484 0)"/>
       <use xlink:href="#DejaVuSans-Bold-6b" transform="translate(410.351562 0)"/>
      </g>
     </g>
    </g>
    <g id="xtick_12">
     <g id="line2d_12">
      <path d="M 250.494108 252.300886 
L 196.551715 50.985132 
" clip-path="url(#pe72074c6df)" style="fill: none; stroke: #808080; stroke-opacity: 0.3; stroke-width: 0.8; stroke-linecap: square"/>
     </g>
     <g id="text_12">
      <!-- RCLIP -->
      <g style="fill: #2e6642" transform="translate(168.523268 35.046777) scale(0.14 -0.14)">
       <use xlink:href="#DejaVuSans-Bold-52"/>
       <use xlink:href="#DejaVuSans-Bold-43" transform="translate(77.001953 0)"/>
       <use xlink:href="#DejaVuSans-Bold-4c" transform="translate(150.390625 0)"/>
       <use xlink:href="#DejaVuSans-Bold-49" transform="translate(214.111328 0)"/>
       <use xlink:href="#DejaVuSans-Bold-50" transform="translate(251.318359 0)"/>
      </g>
     </g>
    </g>
   </g>
   <g id="matplotlib.axis_2">
    <g id="ytick_1">
     <g id="line2d_13">
      <path d="M 250.494108 210.617405 
C 255.967933 210.617405 261.388531 211.695629 266.445686 213.790371 
C 271.50284 215.885113 276.098202 218.955635 279.96878 222.826214 
C 283.839359 226.696792 286.909881 231.292154 289.004623 236.349308 
C 291.099365 241.406463 292.177589 246.827061 292.177589 252.300886 
C 292.177589 257.77471 291.099365 263.195309 289.004623 268.252463 
C 286.909881 273.309618 283.839359 277.904979 279.96878 281.775558 
C 276.098202 285.646136 271.50284 288.716658 266.445686 290.8114 
C 261.388531 292.906142 255.967933 293.984367 250.494108 293.984367 
C 245.020284 293.984367 239.599685 292.906142 234.542531 290.8114 
C 229.485376 288.716658 224.890015 285.646136 221.019436 281.775558 
C 217.148858 277.904979 214.078335 273.309618 211.983593 268.252463 
C 209.888851 263.195309 208.810627 257.77471 208.810627 252.300886 
C 208.810627 246.827061 209.888851 241.406463 211.983593 236.349308 
C 214.078335 231.292154 217.148858 226.696792 221.019436 222.826214 
C 224.890015 218.955635 229.485376 215.885113 234.542531 213.790371 
C 239.599685 211.695629 245.020284 210.617405 250.494108 210.617405 
" clip-path="url(#pe72074c6df)" style="fill: none; stroke: #808080; stroke-opacity: 0.3; stroke-width: 0.8; stroke-linecap: square"/>
     </g>
    </g>
    <g id="ytick_2">
     <g id="line2d_14">
      <path d="M 250.494108 168.933924 
C 261.441757 168.933924 272.282954 171.090372 282.397263 175.279856 
C 292.511572 179.46934 301.702295 185.610385 309.443452 193.351542 
C 317.184609 201.092698 323.325654 210.283422 327.515138 220.39773 
C 331.704622 230.512039 333.86107 241.353236 333.86107 252.300886 
C 333.86107 263.248535 331.704622 274.089732 327.515138 284.204041 
C 323.325654 294.31835 317.184609 303.509073 309.443452 311.25023 
C 301.702295 318.991387 292.511572 325.132431 282.397263 329.321915 
C 272.282954 333.511399 261.441757 335.667847 250.494108 335.667847 
C 239.546459 335.667847 228.705262 333.511399 218.590953 329.321915 
C 208.476644 325.132431 199.285921 318.991387 191.544764 311.25023 
C 183.803607 303.509073 177.662562 294.31835 173.473078 284.204041 
C 169.283595 274.089732 167.127146 263.248535 167.127146 252.300886 
C 167.127146 241.353236 169.283595 230.512039 173.473078 220.39773 
C 177.662562 210.283422 183.803607 201.092698 191.544764 193.351542 
C 199.285921 185.610385 208.476644 179.46934 218.590953 175.279856 
C 228.705262 171.090372 239.546459 168.933924 250.494108 168.933924 
" clip-path="url(#pe72074c6df)" style="fill: none; stroke: #808080; stroke-opacity: 0.3; stroke-width: 0.8; stroke-linecap: square"/>
     </g>
    </g>
    <g id="ytick_3">
     <g id="line2d_15">
      <path d="M 250.494108 127.250443 
C 266.915582 127.250443 283.177377 130.485115 298.348841 136.769341 
C 313.520304 143.053567 327.306389 152.265134 338.918124 163.87687 
C 350.52986 175.488605 359.741427 189.274689 366.025653 204.446153 
C 372.309879 219.617616 375.544551 235.879412 375.544551 252.300886 
C 375.544551 268.722359 372.309879 284.984155 366.025653 300.155618 
C 359.741427 315.327082 350.52986 329.113166 338.918124 340.724902 
C 327.306389 352.336637 313.520304 361.548204 298.348841 367.83243 
C 283.177377 374.116656 266.915582 377.351328 250.494108 377.351328 
C 234.072635 377.351328 217.810839 374.116656 202.639376 367.83243 
C 187.467912 361.548204 173.681828 352.336637 162.070092 340.724902 
C 150.458357 329.113166 141.24679 315.327082 134.962564 300.155618 
C 128.678338 284.984155 125.443665 268.722359 125.443665 252.300886 
C 125.443665 235.879412 128.678338 219.617616 134.962564 204.446153 
C 141.24679 189.274689 150.458357 175.488605 162.070092 163.87687 
C 173.681828 152.265134 187.467912 143.053567 202.639376 136.769341 
C 217.810839 130.485115 234.072635 127.250443 250.494108 127.250443 
" clip-path="url(#pe72074c6df)" style="fill: none; stroke: #808080; stroke-opacity: 0.3; stroke-width: 0.8; stroke-linecap: square"/>
     </g>
    </g>
    <g id="ytick_4">
     <g id="line2d_16">
      <path d="M 250.494108 85.566962 
C 272.389407 85.566962 294.071801 89.879858 314.300418 98.258826 
C 334.529036 106.637794 352.910483 118.919884 368.392796 134.402197 
C 383.87511 149.884511 396.1572 168.265957 404.536168 188.494575 
C 412.915136 208.723193 417.228032 230.405587 417.228032 252.300886 
C 417.228032 274.196184 412.915136 295.878578 404.536168 316.107196 
C 396.1572 336.335814 383.87511 354.71726 368.392796 370.199574 
C 352.910483 385.681888 334.529036 397.963977 314.300418 406.342945 
C 294.071801 414.721913 272.389407 419.034809 250.494108 419.034809 
C 228.59881 419.034809 206.916416 414.721913 186.687798 406.342945 
C 166.45918 397.963977 148.077734 385.681888 132.59542 370.199574 
C 117.113106 354.71726 104.831017 336.335814 96.452049 316.107196 
C 88.073081 295.878578 83.760185 274.196184 83.760185 252.300886 
C 83.760185 230.405587 88.073081 208.723193 96.452049 188.494575 
C 104.831017 168.265957 117.113106 149.884511 132.59542 134.402197 
C 148.077734 118.919884 166.45918 106.637794 186.687798 98.258826 
C 206.916416 89.879858 228.59881 85.566962 250.494108 85.566962 
" clip-path="url(#pe72074c6df)" style="fill: none; stroke: #808080; stroke-opacity: 0.3; stroke-width: 0.8; stroke-linecap: square"/>
     </g>
    </g>
    <g id="ytick_5">
     <g id="line2d_17">
      <path d="M 250.494108 43.883481 
C 277.863231 43.883481 304.966224 49.274601 330.251996 59.748311 
C 355.537768 70.222021 378.514576 85.574633 397.867468 104.927525 
C 417.220361 124.280418 432.572973 147.257225 443.046683 172.542998 
C 453.520392 197.82877 458.911513 224.931763 458.911513 252.300886 
C 458.911513 279.670008 453.520392 306.773001 443.046683 332.058773 
C 432.572973 357.344546 417.220361 380.321353 397.867468 399.674246 
C 378.514576 419.027138 355.537768 434.37975 330.251996 444.85346 
C 304.966224 455.32717 277.863231 460.71829 250.494108 460.71829 
C 223.124985 460.71829 196.021993 455.32717 170.73622 444.85346 
C 145.450448 434.37975 122.47364 419.027138 103.120748 399.674246 
C 83.767856 380.321353 68.415244 357.344546 57.941534 332.058773 
C 47.467824 306.773001 42.076704 279.670008 42.076704 252.300886 
C 42.076704 224.931763 47.467824 197.82877 57.941534 172.542998 
C 68.415244 147.257225 83.767856 124.280418 103.120748 104.927525 
C 122.47364 85.574633 145.450448 70.222021 170.73622 59.748311 
C 196.021993 49.274601 223.124985 43.883481 250.494108 43.883481 
" clip-path="url(#pe72074c6df)" style="fill: none; stroke: #808080; stroke-opacity: 0.3; stroke-width: 0.8; stroke-linecap: square"/>
     </g>
    </g>
   </g>
   <g id="line2d_18">
    <path d="M 272.071066 171.774584 
L 309.443452 193.351542 
L 331.02041 230.723928 
L 331.02041 273.877843 
L 320.396878 322.203655 
L 273.112059 336.712228 
L 214.347888 387.200415 
L 136.730356 366.064638 
L 95.546983 293.818843 
L 136.49321 221.754437 
L 191.544764 193.351542 
L 225.620671 159.471955 
L 272.071066 171.774584 
" clip-path="url(#pe72074c6df)" style="fill: none; stroke: #6c9a8b; stroke-width: 2; stroke-linecap: square"/>
   </g>
   <g id="line2d_19">
    <path d="M 295.226825 85.356114 
L 382.507428 120.287566 
L 441.744074 201.055612 
L 441.744074 303.54616 
L 333.540988 335.347766 
L 301.739382 443.550852 
L 199.248834 443.550852 
L 113.988208 388.806786 
L 66.50471 301.600696 
L 131.343273 220.374515 
L 126.034277 127.841055 
L 226.279967 161.932481 
L 295.226825 85.356114 
" clip-path="url(#pe72074c6df)" style="fill: none; stroke: #1f77b4; stroke-width: 2; stroke-linecap: square"/>
   </g>
   <g id="line2d_20">
    <path d="M 291.608738 98.859 
L 381.365803 121.42919 
L 389.457899 215.06565 
L 406.026763 293.975735 
L 366.401264 368.208042 
L 295.493421 420.240607 
L 208.785079 407.961102 
L 130.315904 372.47909 
L 59.244142 303.54616 
L 59.244142 201.055612 
L 129.365319 131.172096 
L 199.248834 61.050919 
L 291.608738 98.859 
" clip-path="url(#pe72074c6df)" style="fill: none; stroke: #9467bd; stroke-width: 2; stroke-linecap: square"/>
   </g>
   <g id="line2d_21">
    <path d="M 281.478093 136.667081 
L 390.4988 112.296193 
L 331.02041 230.723928 
L 388.168108 289.190523 
L 390.4988 392.305578 
L 298.095905 429.953209 
L 204.546748 423.778769 
L 110.489416 392.305578 
L 70.134994 300.627965 
L 131.343273 220.374515 
L 110.489416 112.296193 
L 228.917151 171.774584 
L 281.478093 136.667081 
" clip-path="url(#pe72074c6df)" style="fill: none; stroke: #b0b0b0; stroke-width: 2; stroke-linecap: square"/>
   </g>
   <g id="line2d_22">
    <path d="M 301.739382 61.050919 
L 325.426197 177.368797 
L 398.684871 212.59329 
L 441.744074 303.54616 
L 309.443452 311.25023 
L 272.071066 332.827187 
L 228.917151 332.827187 
L 191.544764 311.25023 
L 169.967807 273.877843 
L 169.967807 230.723928 
L 122.703236 124.510013 
L 204.523202 80.735127 
L 301.739382 61.050919 
" clip-path="url(#pe72074c6df)" style="fill: none; stroke: #a9746e; stroke-width: 2; stroke-linecap: square"/>
   </g>
   <g id="legend_1">
    <g id="patch_8">
     <path d="M 485.56084 83.590625 
L 556.120215 83.590625 
Q 558.120215 83.590625 558.120215 81.590625 
L 558.120215 9.2 
Q 558.120215 7.2 556.120215 7.2 
L 485.56084 7.2 
Q 483.56084 7.2 483.56084 9.2 
L 483.56084 81.590625 
Q 483.56084 83.590625 485.56084 83.590625 
z
" style="fill: #ffffff; opacity: 0.8; stroke: #cccccc; stroke-linejoin: miter"/>
    </g>
    <g id="line2d_23">
     <path d="M 487.56084 15.298437 
L 497.56084 15.298437 
L 507.56084 15.298437 
" style="fill: none; stroke: #6c9a8b; stroke-width: 2; stroke-linecap: square"/>
    </g>
    <g id="text_13">
     <!-- SigLIP -->
     <g transform="translate(515.56084 18.798437) scale(0.1 -0.1)">
      <defs>
       <path id="DejaVuSans-53" d="M 3425 4513 
L 3425 3897 
Q 3066 4069 2747 4153 
Q 2428 4238 2131 4238 
Q 1616 4238 1336 4038 
Q 1056 3838 1056 3469 
Q 1056 3159 1242 3001 
Q 1428 2844 1947 2747 
L 2328 2669 
Q 3034 2534 3370 2195 
Q 3706 1856 3706 1288 
Q 3706 609 3251 259 
Q 2797 -91 1919 -91 
Q 1588 -91 1214 -16 
Q 841 59 441 206 
L 441 856 
Q 825 641 1194 531 
Q 1563 422 1919 422 
Q 2459 422 2753 634 
Q 3047 847 3047 1241 
Q 3047 1584 2836 1778 
Q 2625 1972 2144 2069 
L 1759 2144 
Q 1053 2284 737 2584 
Q 422 2884 422 3419 
Q 422 4038 858 4394 
Q 1294 4750 2059 4750 
Q 2388 4750 2728 4690 
Q 3069 4631 3425 4513 
z
" transform="scale(0.015625)"/>
       <path id="DejaVuSans-69" d="M 603 3500 
L 1178 3500 
L 1178 0 
L 603 0 
L 603 3500 
z
M 603 4863 
L 1178 4863 
L 1178 4134 
L 603 4134 
L 603 4863 
z
" transform="scale(0.015625)"/>
       <path id="DejaVuSans-67" d="M 2906 1791 
Q 2906 2416 2648 2759 
Q 2391 3103 1925 3103 
Q 1463 3103 1205 2759 
Q 947 2416 947 1791 
Q 947 1169 1205 825 
Q 1463 481 1925 481 
Q 2391 481 2648 825 
Q 2906 1169 2906 1791 
z
M 3481 434 
Q 3481 -459 3084 -895 
Q 2688 -1331 1869 -1331 
Q 1566 -1331 1297 -1286 
Q 1028 -1241 775 -1147 
L 775 -588 
Q 1028 -725 1275 -790 
Q 1522 -856 1778 -856 
Q 2344 -856 2625 -561 
Q 2906 -266 2906 331 
L 2906 616 
Q 2728 306 2450 153 
Q 2172 0 1784 0 
Q 1141 0 747 490 
Q 353 981 353 1791 
Q 353 2603 747 3093 
Q 1141 3584 1784 3584 
Q 2172 3584 2450 3431 
Q 2728 3278 2906 2969 
L 2906 3500 
L 3481 3500 
L 3481 434 
z
" transform="scale(0.015625)"/>
       <path id="DejaVuSans-4c" d="M 628 4666 
L 1259 4666 
L 1259 531 
L 3531 531 
L 3531 0 
L 628 0 
L 628 4666 
z
" transform="scale(0.015625)"/>
       <path id="DejaVuSans-49" d="M 628 4666 
L 1259 4666 
L 1259 0 
L 628 0 
L 628 4666 
z
" transform="scale(0.015625)"/>
       <path id="DejaVuSans-50" d="M 1259 4147 
L 1259 2394 
L 2053 2394 
Q 2494 2394 2734 2622 
Q 2975 2850 2975 3272 
Q 2975 3691 2734 3919 
Q 2494 4147 2053 4147 
L 1259 4147 
z
M 628 4666 
L 2053 4666 
Q 2838 4666 3239 4311 
Q 3641 3956 3641 3272 
Q 3641 2581 3239 2228 
Q 2838 1875 2053 1875 
L 1259 1875 
L 1259 0 
L 628 0 
L 628 4666 
z
" transform="scale(0.015625)"/>
      </defs>
      <use xlink:href="#DejaVuSans-53"/>
      <use xlink:href="#DejaVuSans-69" transform="translate(63.476562 0)"/>
      <use xlink:href="#DejaVuSans-67" transform="translate(91.259766 0)"/>
      <use xlink:href="#DejaVuSans-4c" transform="translate(154.736328 0)"/>
      <use xlink:href="#DejaVuSans-49" transform="translate(210.449219 0)"/>
      <use xlink:href="#DejaVuSans-50" transform="translate(239.941406 0)"/>
     </g>
    </g>
    <g id="line2d_24">
     <path d="M 487.56084 29.976562 
L 497.56084 29.976562 
L 507.56084 29.976562 
" style="fill: none; stroke: #1f77b4; stroke-width: 2; stroke-linecap: square"/>
    </g>
    <g id="text_14">
     <!-- S1 -->
     <g transform="translate(515.56084 33.476562) scale(0.1 -0.1)">
      <defs>
       <path id="DejaVuSans-31" d="M 794 531 
L 1825 531 
L 1825 4091 
L 703 3866 
L 703 4441 
L 1819 4666 
L 2450 4666 
L 2450 531 
L 3481 531 
L 3481 0 
L 794 0 
L 794 531 
z
" transform="scale(0.015625)"/>
      </defs>
      <use xlink:href="#DejaVuSans-53"/>
      <use xlink:href="#DejaVuSans-31" transform="translate(63.476562 0)"/>
     </g>
    </g>
    <g id="line2d_25">
     <path d="M 487.56084 44.654687 
L 497.56084 44.654687 
L 507.56084 44.654687 
" style="fill: none; stroke: #9467bd; stroke-width: 2; stroke-linecap: square"/>
    </g>
    <g id="text_15">
     <!-- S2 -->
     <g transform="translate(515.56084 48.154687) scale(0.1 -0.1)">
      <defs>
       <path id="DejaVuSans-32" d="M 1228 531 
L 3431 531 
L 3431 0 
L 469 0 
L 469 531 
Q 828 903 1448 1529 
Q 2069 2156 2228 2338 
Q 2531 2678 2651 2914 
Q 2772 3150 2772 3378 
Q 2772 3750 2511 3984 
Q 2250 4219 1831 4219 
Q 1534 4219 1204 4116 
Q 875 4013 500 3803 
L 500 4441 
Q 881 4594 1212 4672 
Q 1544 4750 1819 4750 
Q 2544 4750 2975 4387 
Q 3406 4025 3406 3419 
Q 3406 3131 3298 2873 
Q 3191 2616 2906 2266 
Q 2828 2175 2409 1742 
Q 1991 1309 1228 531 
z
" transform="scale(0.015625)"/>
      </defs>
      <use xlink:href="#DejaVuSans-53"/>
      <use xlink:href="#DejaVuSans-32" transform="translate(63.476562 0)"/>
     </g>
    </g>
    <g id="line2d_26">
     <path d="M 487.56084 59.332812 
L 497.56084 59.332812 
L 507.56084 59.332812 
" style="fill: none; stroke: #b0b0b0; stroke-width: 2; stroke-linecap: square"/>
    </g>
    <g id="text_16">
     <!-- S0-Des. -->
     <g transform="translate(515.56084 62.832812) scale(0.1 -0.1)">
      <defs>
       <path id="DejaVuSans-30" d="M 2034 4250 
Q 1547 4250 1301 3770 
Q 1056 3291 1056 2328 
Q 1056 1369 1301 889 
Q 1547 409 2034 409 
Q 2525 409 2770 889 
Q 3016 1369 3016 2328 
Q 3016 3291 2770 3770 
Q 2525 4250 2034 4250 
z
M 2034 4750 
Q 2819 4750 3233 4129 
Q 3647 3509 3647 2328 
Q 3647 1150 3233 529 
Q 2819 -91 2034 -91 
Q 1250 -91 836 529 
Q 422 1150 422 2328 
Q 422 3509 836 4129 
Q 1250 4750 2034 4750 
z
" transform="scale(0.015625)"/>
       <path id="DejaVuSans-2d" d="M 313 2009 
L 1997 2009 
L 1997 1497 
L 313 1497 
L 313 2009 
z
" transform="scale(0.015625)"/>
       <path id="DejaVuSans-44" d="M 1259 4147 
L 1259 519 
L 2022 519 
Q 2988 519 3436 956 
Q 3884 1394 3884 2338 
Q 3884 3275 3436 3711 
Q 2988 4147 2022 4147 
L 1259 4147 
z
M 628 4666 
L 1925 4666 
Q 3281 4666 3915 4102 
Q 4550 3538 4550 2338 
Q 4550 1131 3912 565 
Q 3275 0 1925 0 
L 628 0 
L 628 4666 
z
" transform="scale(0.015625)"/>
       <path id="DejaVuSans-65" d="M 3597 1894 
L 3597 1613 
L 953 1613 
Q 991 1019 1311 708 
Q 1631 397 2203 397 
Q 2534 397 2845 478 
Q 3156 559 3463 722 
L 3463 178 
Q 3153 47 2828 -22 
Q 2503 -91 2169 -91 
Q 1331 -91 842 396 
Q 353 884 353 1716 
Q 353 2575 817 3079 
Q 1281 3584 2069 3584 
Q 2775 3584 3186 3129 
Q 3597 2675 3597 1894 
z
M 3022 2063 
Q 3016 2534 2758 2815 
Q 2500 3097 2075 3097 
Q 1594 3097 1305 2825 
Q 1016 2553 972 2059 
L 3022 2063 
z
" transform="scale(0.015625)"/>
       <path id="DejaVuSans-73" d="M 2834 3397 
L 2834 2853 
Q 2591 2978 2328 3040 
Q 2066 3103 1784 3103 
Q 1356 3103 1142 2972 
Q 928 2841 928 2578 
Q 928 2378 1081 2264 
Q 1234 2150 1697 2047 
L 1894 2003 
Q 2506 1872 2764 1633 
Q 3022 1394 3022 966 
Q 3022 478 2636 193 
Q 2250 -91 1575 -91 
Q 1294 -91 989 -36 
Q 684 19 347 128 
L 347 722 
Q 666 556 975 473 
Q 1284 391 1588 391 
Q 1994 391 2212 530 
Q 2431 669 2431 922 
Q 2431 1156 2273 1281 
Q 2116 1406 1581 1522 
L 1381 1569 
Q 847 1681 609 1914 
Q 372 2147 372 2553 
Q 372 3047 722 3315 
Q 1072 3584 1716 3584 
Q 2034 3584 2315 3537 
Q 2597 3491 2834 3397 
z
" transform="scale(0.015625)"/>
       <path id="DejaVuSans-2e" d="M 684 794 
L 1344 794 
L 1344 0 
L 684 0 
L 684 794 
z
" transform="scale(0.015625)"/>
      </defs>
      <use xlink:href="#DejaVuSans-53"/>
      <use xlink:href="#DejaVuSans-30" transform="translate(63.476562 0)"/>
      <use xlink:href="#DejaVuSans-2d" transform="translate(127.099609 0)"/>
      <use xlink:href="#DejaVuSans-44" transform="translate(163.183594 0)"/>
      <use xlink:href="#DejaVuSans-65" transform="translate(240.185547 0)"/>
      <use xlink:href="#DejaVuSans-73" transform="translate(301.708984 0)"/>
      <use xlink:href="#DejaVuSans-2e" transform="translate(353.808594 0)"/>
     </g>
    </g>
    <g id="line2d_27">
     <path d="M 487.56084 74.010937 
L 497.56084 74.010937 
L 507.56084 74.010937 
" style="fill: none; stroke: #a9746e; stroke-width: 2; stroke-linecap: square"/>
    </g>
    <g id="text_17">
     <!-- S0-Rea. -->
     <g transform="translate(515.56084 77.510937) scale(0.1 -0.1)">
      <defs>
       <path id="DejaVuSans-52" d="M 2841 2188 
Q 3044 2119 3236 1894 
Q 3428 1669 3622 1275 
L 4263 0 
L 3584 0 
L 2988 1197 
Q 2756 1666 2539 1819 
Q 2322 1972 1947 1972 
L 1259 1972 
L 1259 0 
L 628 0 
L 628 4666 
L 2053 4666 
Q 2853 4666 3247 4331 
Q 3641 3997 3641 3322 
Q 3641 2881 3436 2590 
Q 3231 2300 2841 2188 
z
M 1259 4147 
L 1259 2491 
L 2053 2491 
Q 2509 2491 2742 2702 
Q 2975 2913 2975 3322 
Q 2975 3731 2742 3939 
Q 2509 4147 2053 4147 
L 1259 4147 
z
" transform="scale(0.015625)"/>
       <path id="DejaVuSans-61" d="M 2194 1759 
Q 1497 1759 1228 1600 
Q 959 1441 959 1056 
Q 959 750 1161 570 
Q 1363 391 1709 391 
Q 2188 391 2477 730 
Q 2766 1069 2766 1631 
L 2766 1759 
L 2194 1759 
z
M 3341 1997 
L 3341 0 
L 2766 0 
L 2766 531 
Q 2569 213 2275 61 
Q 1981 -91 1556 -91 
Q 1019 -91 701 211 
Q 384 513 384 1019 
Q 384 1609 779 1909 
Q 1175 2209 1959 2209 
L 2766 2209 
L 2766 2266 
Q 2766 2663 2505 2880 
Q 2244 3097 1772 3097 
Q 1472 3097 1187 3025 
Q 903 2953 641 2809 
L 641 3341 
Q 956 3463 1253 3523 
Q 1550 3584 1831 3584 
Q 2591 3584 2966 3190 
Q 3341 2797 3341 1997 
z
" transform="scale(0.015625)"/>
      </defs>
      <use xlink:href="#DejaVuSans-53"/>
      <use xlink:href="#DejaVuSans-30" transform="translate(63.476562 0)"/>
      <use xlink:href="#DejaVuSans-2d" transform="translate(127.099609 0)"/>
      <use xlink:href="#DejaVuSans-52" transform="translate(163.183594 0)"/>
      <use xlink:href="#DejaVuSans-65" transform="translate(228.166016 0)"/>
      <use xlink:href="#DejaVuSans-61" transform="translate(289.689453 0)"/>
      <use xlink:href="#DejaVuSans-2e" transform="translate(350.96875 0)"/>
     </g>
    </g>
   </g>
  </g>
 </g>
 <defs>
  <clipPath id="pe72074c6df">
   <path d="M 458.911513 252.300886 
C 458.911513 224.931763 453.520392 197.82877 443.046683 172.542998 
C 432.572973 147.257225 417.220361 124.280418 397.867468 104.927525 
C 378.514576 85.574633 355.537768 70.222021 330.251996 59.748311 
C 304.966224 49.274601 277.863231 43.883481 250.494108 43.883481 
C 223.124985 43.883481 196.021993 49.274601 170.73622 59.748311 
C 145.450448 70.222021 122.47364 85.574633 103.120748 104.927525 
C 83.767856 124.280418 68.415244 147.257225 57.941534 172.542998 
C 47.467824 197.82877 42.076704 224.931763 42.076704 252.300886 
C 42.076704 279.670008 47.467824 306.773001 57.941534 332.058773 
C 68.415244 357.344546 83.767856 380.321353 103.120748 399.674246 
C 122.47364 419.027138 145.450448 434.37975 170.73622 444.85346 
C 196.021993 455.32717 223.124985 460.71829 250.494108 460.71829 
C 277.863231 460.71829 304.966224 455.32717 330.251996 444.85346 
C 355.537768 434.37975 378.514576 419.027138 397.867468 399.674246 
C 417.220361 380.321353 432.572973 357.344546 443.046683 332.058773 
C 453.520392 306.773001 458.911513 279.670008 458.911513 252.300886 
M 250.494108 252.300886 
C 250.494108 252.300886 250.494108 252.300886 250.494108 252.300886 
C 250.494108 252.300886 250.494108 252.300886 250.494108 252.300886 
C 250.494108 252.300886 250.494108 252.300886 250.494108 252.300886 
C 250.494108 252.300886 250.494108 252.300886 250.494108 252.300886 
C 250.494108 252.300886 250.494108 252.300886 250.494108 252.300886 
C 250.494108 252.300886 250.494108 252.300886 250.494108 252.300886 
C 250.494108 252.300886 250.494108 252.300886 250.494108 252.300886 
C 250.494108 252.300886 250.494108 252.300886 250.494108 252.300886 
C 250.494108 252.300886 250.494108 252.300886 250.494108 252.300886 
C 250.494108 252.300886 250.494108 252.300886 250.494108 252.300886 
C 250.494108 252.300886 250.494108 252.300886 250.494108 252.300886 
C 250.494108 252.300886 250.494108 252.300886 250.494108 252.300886 
C 250.494108 252.300886 250.494108 252.300886 250.494108 252.300886 
C 250.494108 252.300886 250.494108 252.300886 250.494108 252.300886 
C 250.494108 252.300886 250.494108 252.300886 250.494108 252.300886 
C 250.494108 252.300886 250.494108 252.300886 250.494108 252.300886 
z
"/>
  </clipPath>
 </defs>
</svg>
